<svg width="257" height="40" viewBox="0 0 257 40" fill="none" xmlns="http://www.w3.org/2000/svg">
<g clip-path="url(#clip0_2001_3)">
<path d="M87.6299 6.87676H92.6271L96.375 24.8057L99.9445 6.87676H104.406L107.976 24.8057L111.724 6.87676H116.721L110.653 33.1232H105.566L102.086 15.6564L98.6059 33.1232H93.5195L87.6299 6.87676Z" fill="#102442"/>
<path d="M117.435 25.7298V19.6303C117.435 14.1777 119.933 11.8673 123.503 11.8673C126.537 11.8673 128.054 13.808 128.322 14.4549V12.1445H132.783V33.1232H128.322V30.8128C128.054 31.5521 126.448 33.4929 123.503 33.4929C119.844 33.4929 117.435 31.09 117.435 25.7298ZM128.054 25.3602V19.9076C128.054 17.4123 126.805 16.2109 125.198 16.2109C123.414 16.2109 122.253 17.4123 122.253 19.9076V25.2677C122.253 27.8554 123.414 29.0568 125.198 29.0568C126.894 29.1493 128.054 27.9478 128.054 25.3602Z" fill="#102442"/>
<path d="M136.799 12.1445H141.261V15.0094C141.796 12.699 144.295 11.6824 146.615 11.9597V16.7654C142.956 16.4881 141.528 18.244 141.528 21.5711V33.1232H136.799V12.1445Z" fill="#102442"/>
<path d="M148.4 25.2677V20.1848C148.4 15.1019 151.166 11.8673 156.074 11.8673C160.893 11.8673 163.748 14.8246 163.748 20V24.0663H153.129V26.3767C153.129 28.2251 154.557 29.5189 156.074 29.5189C157.68 29.5189 158.93 28.5948 158.93 26.8388V26.3767H163.659V26.5616C163.659 30.4431 160.803 33.4929 155.985 33.4929C151.166 33.4929 148.4 30.3507 148.4 25.2677ZM159.019 20.6469V19.6303C159.019 16.8578 157.859 15.9336 156.163 15.9336C154.468 15.9336 153.218 16.8578 153.218 19.1682V20.7393H159.019V20.6469Z" fill="#102442"/>
<path d="M166.068 24.5284H171.066C171.066 27.5782 172.583 28.872 174.814 28.872C176.866 28.872 178.472 27.8555 178.472 25.7299C178.472 23.5119 176.152 22.8649 173.564 21.9408C170.263 20.7393 166.515 19.3531 166.515 14.1777C166.515 9.37205 169.816 6.4147 174.903 6.4147C179.811 6.4147 183.202 9.83413 183.202 15.1943H178.294C178.294 12.4218 176.955 11.128 174.814 11.128C172.672 11.128 171.512 12.1446 171.512 14.1777C171.512 16.3957 173.654 17.1351 176.152 17.9668C179.543 19.0758 183.469 20.2773 183.469 25.7299C183.469 30.7204 179.989 33.6777 174.814 33.6777C169.549 33.5853 166.068 30.1659 166.068 24.5284Z" fill="#00AA6C"/>
<path d="M186.593 12.1446H191.055V14.455C191.322 13.7157 192.929 11.8673 195.873 11.8673C199.532 11.8673 201.941 14.1777 201.941 19.6304V25.7299C201.941 31.0901 199.532 33.4005 195.873 33.4005C192.661 33.4005 191.411 31.2749 191.411 31.2749V39.5H186.593V12.1446ZM197.123 25.2678V19.9076C197.123 17.3199 195.963 16.1185 194.178 16.1185C192.482 16.1185 191.233 17.3199 191.233 19.9076V25.3602C191.233 27.8555 192.482 28.9645 194.178 28.9645C195.963 28.9645 197.123 27.8555 197.123 25.2678Z" fill="#00AA6C"/>
<path d="M204.886 25.7299V19.6304C204.886 14.1777 207.385 11.8673 210.954 11.8673C213.988 11.8673 215.505 13.8081 215.773 14.455V12.1446H220.235V33.1232H215.773V30.8128C215.505 31.5522 213.899 33.4929 210.954 33.4929C207.295 33.4929 204.886 31.0901 204.886 25.7299ZM215.505 25.3602V19.9076C215.505 17.4123 214.256 16.2109 212.65 16.2109C210.865 16.2109 209.705 17.4123 209.705 19.9076V25.2678C209.705 27.8555 210.865 29.0569 212.65 29.0569C214.345 29.1493 215.505 27.9479 215.505 25.3602Z" fill="#00AA6C"/>
<path d="M223.626 25.2678V20.1849C223.626 15.1019 226.392 11.8673 231.3 11.8673C236.297 11.8673 238.974 15.0095 238.974 20.3697V20.5545H234.245V20.4621C234.245 17.5972 233.085 16.3958 231.389 16.3958C229.605 16.3958 228.444 17.3199 228.444 20V24.8981C228.444 27.6706 229.426 29.1493 231.389 29.1493C233.085 29.1493 234.245 27.9479 234.245 25.1754V24.9905H238.974V25.1754C238.974 30.4431 236.297 33.4929 231.3 33.4929C226.481 33.4929 223.626 30.3507 223.626 25.2678Z" fill="#00AA6C"/>
<path d="M241.651 25.2678V20.1849C241.651 15.1019 244.418 11.8673 249.326 11.8673C254.144 11.8673 257 14.8247 257 20V24.0664H246.381V26.3768C246.381 28.2251 247.809 29.519 249.326 29.519C250.932 29.519 252.181 28.5948 252.181 26.8389V26.3768H256.911V26.5616C256.911 30.4431 254.055 33.4929 249.236 33.4929C244.418 33.4929 241.651 30.3507 241.651 25.2678ZM252.27 20.6469V19.6304C252.27 16.8578 251.11 15.9337 249.415 15.9337C247.719 15.9337 246.47 16.8578 246.47 19.1683V20.7394H252.27V20.6469Z" fill="#00AA6C"/>
<path d="M75.7615 8.7251L50.6861 23.6967V38.6682L55.6833 35.8033V26.4692L70.8535 17.4123V26.654L75.7615 23.6967V8.7251Z" fill="#00AA6C"/>
<path d="M38.1931 31.1825L50.6861 38.6683V23.6967L38.1931 16.2109V31.1825Z" fill="#00AA6C"/>
<path d="M38.1931 31.1825L25.7 38.6683V23.6967L38.1931 16.2109V31.1825Z" fill="#00AA6C"/>
<path d="M0.624672 8.7251L25.7 23.6967V38.6682L20.792 35.8033V26.4692L5.62189 17.4123V26.654L0.624672 23.6967V8.7251Z" fill="#00AA6C"/>
<path d="M57.6465 29.2417L68.8903 22.4952V20.9241L57.6465 27.6706V29.2417Z" fill="#102442"/>
<path d="M57.6465 32.2915L68.8903 25.545V24.0664L57.6465 30.7204V32.2915Z" fill="#102442"/>
<path d="M76.3861 8.35545L63.2684 0.5L50.7754 7.98578L38.1931 0.5L25.7 7.98578L13.2069 0.5L0 8.35545V24.0664L6.24653 27.763V18.5213L20.0781 26.8389V36.0806L25.7 39.4076L38.1931 31.9218L50.6861 39.4076L56.308 36.0806V26.8389L70.1396 18.5213V27.763L76.3861 24.0664V8.35545ZM25.0753 37.5592L21.4167 35.3412V26.0995L4.90799 16.3033V25.545L1.24931 23.327V9.92654L12.7608 16.8578L24.9861 24.1588V37.5592H25.0753ZM37.5684 30.8128L26.3247 37.5592V24.1588L37.5684 17.4123V30.8128ZM50.0615 37.5592L38.8177 30.8128V17.4123L50.0615 24.1588V37.5592ZM75.1368 23.327L71.4781 25.545V16.3033L54.9694 26.0995V35.3412L51.3108 37.5592V24.1588L60.0559 18.891L63.4469 16.8578L74.9583 9.92654L75.1368 23.327Z" fill="#102442"/>
<path d="M57.6465 33.7701V35.3412L68.8903 28.5948V27.1161L63.2684 30.4431L57.6465 33.7701Z" fill="#102442"/>
<path d="M7.49583 22.4952L18.8288 29.2417V27.6706L7.49583 20.9241V22.4952Z" fill="#102442"/>
<path d="M7.49583 25.545L18.8288 32.2915V30.7204L7.49583 24.0664V25.545Z" fill="#102442"/>
<path d="M7.49583 27.1161V28.5948L18.8288 35.3412V33.7701L13.2069 30.4431L7.49583 27.1161Z" fill="#102442"/>
</g>
<defs>
<clipPath id="clip0_2001_3">
<rect width="257" height="39" fill="white" transform="translate(0 0.5)"/>
</clipPath>
</defs>
</svg>
