<svg width="86" height="18" viewBox="0 0 86 18" fill="none" xmlns="http://www.w3.org/2000/svg">
<path d="M8.67056 1.12861C8.7874 0.8397 9.19643 0.839701 9.31327 1.12861L11.1622 5.7005C11.2119 5.82329 11.3271 5.90705 11.4593 5.91633L16.3787 6.26198C16.6896 6.28382 16.816 6.67284 16.5774 6.87324L12.8006 10.0445C12.6991 10.1296 12.6551 10.2652 12.6871 10.3937L13.8786 15.1792C13.9539 15.4816 13.623 15.722 13.3586 15.557L9.17551 12.945C9.06316 12.8749 8.92066 12.8749 8.80832 12.945L4.62521 15.557C4.36087 15.722 4.02995 15.4816 4.10524 15.1792L5.29671 10.3937C5.32871 10.2652 5.28468 10.1296 5.18325 10.0445L1.40647 6.87323C1.16781 6.67284 1.29421 6.28382 1.60508 6.26198L6.52456 5.91633C6.65668 5.90705 6.77197 5.82329 6.82162 5.7005L8.67056 1.12861Z" fill="#E6A53B"/>
<path d="M25.5671 1.17622C25.681 0.87979 26.1003 0.879791 26.2142 1.17622L27.9507 5.69599C27.9988 5.82124 28.1149 5.90747 28.2487 5.91737L32.9001 6.26138C33.206 6.28401 33.334 6.66364 33.1041 6.86681L29.507 10.0462C29.4112 10.1308 29.3698 10.2613 29.3992 10.3857L30.5291 15.1628C30.6013 15.4679 30.2634 15.7045 30.0014 15.5322L26.081 12.9555C25.9655 12.8796 25.8158 12.8796 25.7003 12.9555L21.7799 15.5322C21.5179 15.7045 21.18 15.4679 21.2522 15.1628L22.3821 10.3857C22.4115 10.2613 22.3701 10.1308 22.2743 10.0462L18.6772 6.86681C18.4473 6.66364 18.5753 6.28401 18.8812 6.26138L23.5326 5.91737C23.6664 5.90747 23.7825 5.82124 23.8306 5.69599L25.5671 1.17622Z" fill="#E6A53B"/>
<path d="M42.468 1.12861C42.5849 0.8397 42.9939 0.839701 43.1108 1.12861L44.9597 5.7005C45.0093 5.82329 45.1246 5.90705 45.2568 5.91633L50.1762 6.26198C50.4871 6.28382 50.6135 6.67284 50.3748 6.87324L46.5981 10.0445C46.4966 10.1296 46.4526 10.2652 46.4846 10.3937L47.6761 15.1792C47.7514 15.4816 47.4204 15.722 47.1561 15.557L42.973 12.945C42.8606 12.8749 42.7182 12.8749 42.6058 12.945L38.4227 15.557C38.1584 15.722 37.8274 15.4816 37.9027 15.1792L39.0942 10.3937C39.1262 10.2652 39.0822 10.1296 38.9807 10.0445L35.204 6.87323C34.9653 6.67284 35.0917 6.28382 35.4026 6.26198L40.322 5.91633C40.4542 5.90705 40.5695 5.82329 40.6191 5.7005L42.468 1.12861Z" fill="#E6A53B"/>
<path d="M59.3645 1.17622C59.4784 0.87979 59.8978 0.879791 60.0117 1.17622L61.7481 5.69599C61.7963 5.82124 61.9123 5.90747 62.0462 5.91737L66.6975 6.26138C67.0035 6.28401 67.1314 6.66364 66.9015 6.86681L63.3044 10.0462C63.2086 10.1308 63.1672 10.2613 63.1966 10.3857L64.3266 15.1628C64.3987 15.4679 64.0609 15.7045 63.7988 15.5322L59.8785 12.9555C59.7629 12.8796 59.6133 12.8796 59.4977 12.9555L55.5774 15.5322C55.3153 15.7045 54.9775 15.4679 55.0496 15.1628L56.1796 10.3857C56.209 10.2613 56.1676 10.1308 56.0718 10.0462L52.4747 6.86681C52.2448 6.66364 52.3727 6.28401 52.6787 6.26138L57.33 5.91737C57.4639 5.90747 57.5799 5.82124 57.6281 5.69599L59.3645 1.17622Z" fill="#E6A53B"/>
<path d="M76.2655 1.12861C76.3823 0.8397 76.7914 0.839701 76.9082 1.12861L78.7571 5.7005C78.8068 5.82329 78.9221 5.90705 79.0542 5.91633L83.9737 6.26198C84.2846 6.28382 84.411 6.67284 84.1723 6.87324L80.3955 10.0445C80.2941 10.1296 80.2501 10.2652 80.2821 10.3937L81.4735 15.1792C81.5488 15.4816 81.2179 15.722 80.9536 15.557L76.7704 12.945C76.6581 12.8749 76.5156 12.8749 76.4033 12.945L72.2201 15.557C71.9558 15.722 71.6249 15.4816 71.7002 15.1792L72.8917 10.3937C72.9237 10.2652 72.8796 10.1296 72.7782 10.0445L69.0014 6.87323C68.7627 6.67284 68.8891 6.28382 69.2 6.26198L74.1195 5.91633C74.2516 5.90705 74.3669 5.82329 74.4166 5.7005L76.2655 1.12861Z" fill="#A3A3A3"/>
<path fill-rule="evenodd" clip-rule="evenodd" d="M78.1856 4.41591L76.8562 1.12861C76.7393 0.8397 76.3303 0.839699 76.2135 1.12861L74.3645 5.7005C74.3149 5.82329 74.1996 5.90705 74.0675 5.91633L69.148 6.26198C68.8371 6.28382 68.7107 6.67284 68.9494 6.87323L72.7262 10.0445C72.8276 10.1296 72.8716 10.2652 72.8396 10.3937L71.6482 15.1792C71.5729 15.4816 71.9038 15.722 72.1681 15.557L76.3512 12.945C76.4636 12.8749 76.6061 12.8749 76.7184 12.945L78.1856 13.8611V4.41591Z" fill="#E6A53B"/>
</svg>
